<?xml version="1.0" encoding="UTF-8" standalone="no"?>
<!DOCTYPE svg PUBLIC "-//W3C//DTD SVG 1.1//EN" "http://www.w3.org/Graphics/SVG/1.1/DTD/svg11.dtd">
<svg width="100%" height="100%" viewBox="0 0 1024 1024" version="1.1" xmlns="http://www.w3.org/2000/svg" xmlns:xlink="http://www.w3.org/1999/xlink" xml:space="preserve" xmlns:serif="http://www.serif.com/" style="fill-rule:evenodd;clip-rule:evenodd;stroke-linejoin:round;stroke-miterlimit:2;">
    <g id="BG">
        <rect x="0" y="0" width="1024" height="1024" style="fill:rgb(98,182,231);"/>
    </g>
    <path d="M292.789,304.042C292.789,277.384 314.432,255.74 341.091,255.74C359.474,255.74 375.473,266.033 383.634,281.165L634.789,587.625L634.789,439.28C626.315,446.624 615.262,451.07 603.179,451.07C576.521,451.07 554.877,429.426 554.877,402.768C554.877,391.367 558.836,380.884 565.452,372.618L565.431,372.601L640.916,280.494C649.184,265.729 664.98,255.74 683.091,255.74C709.749,255.74 731.393,277.384 731.393,304.042L731.393,723.567C731.393,750.225 709.749,771.868 683.091,771.868C665.536,771.868 650.156,762.483 641.699,748.461L389.393,440.596L389.393,723.567C389.393,750.225 367.749,771.868 341.091,771.868C314.432,771.868 292.789,750.225 292.789,723.567L292.789,304.042Z" style="fill:white;"/>
</svg>
